<?xml version="1.0" standalone="no"?>
<!DOCTYPE svg PUBLIC "-//W3C//DTD SVG 20010904//EN"
 "http://www.w3.org/TR/2001/REC-SVG-20010904/DTD/svg10.dtd">
<svg version="1.0" xmlns="http://www.w3.org/2000/svg"
 width="648.000000pt" height="648.000000pt" viewBox="0 0 648.000000 648.000000"
 preserveAspectRatio="xMidYMid meet">
<metadata>
Created by potrace 1.14, written by Peter Selinger 2001-2017
</metadata>
<g transform="translate(0.000000,648.000000) scale(0.100000,-0.100000)"
fill="#000000" stroke="none">
<path d="M2849 6093 c-134 -91 -245 -167 -246 -168 -2 -1 37 -106 86 -233 l90
-230 -1051 -2279 c-988 -2145 -1153 -2510 -1192 -2642 -35 -120 -13 -233 54
-281 61 -44 118 -45 707 -22 301 13 560 22 576 22 26 0 27 1 27 60 l0 60 -242
0 c-256 0 -332 7 -438 42 -127 41 -200 102 -248 206 -44 96 -28 240 47 432 39
100 1839 4142 1849 4152 12 12 779 -1943 1064 -2712 178 -480 295 -809 429
-1210 154 -458 201 -637 201 -772 0 -114 14 -108 -252 -108 l-230 0 0 -75 0
-75 945 0 945 0 0 75 0 75 -254 0 -254 0 -25 63 c-242 600 -2338 5782 -2341
5784 -1 2 -112 -72 -247 -164z"/>
<path d="M2822 2706 c-49 -264 -238 -476 -496 -555 -37 -12 -81 -21 -97 -21
-16 0 -29 -4 -29 -10 0 -5 13 -10 29 -10 44 0 158 -38 234 -77 37 -20 99 -65
138 -101 119 -110 183 -224 218 -386 l17 -79 17 83 c40 207 184 395 373 489
70 35 183 71 221 71 46 0 21 16 -43 28 -134 25 -258 94 -366 203 -91 93 -159
218 -184 339 -8 41 -16 79 -17 84 -2 5 -9 -21 -15 -58z"/>
</g>
</svg>
